<?xml version="1.0" standalone="no"?>
<!DOCTYPE svg PUBLIC "-//W3C//DTD SVG 1.1//EN" "http://www.w3.org/Graphics/SVG/1.1/DTD/svg11.dtd">
<svg xmlns="http://www.w3.org/2000/svg" xmlns:xlink="http://www.w3.org/1999/xlink" width="375" zoomAndPan="magnify" viewBox="0 0 375 202.499994" height="202.5" preserveAspectRatio="xMidYMid meet" version="1.0"><defs><g/><clipPath id="a739b84752"><path d="M 0.460938 0 L 374.539062 0 L 374.539062 202 L 0.460938 202 Z M 0.460938 0 " clip-rule="nonzero"/></clipPath><clipPath id="eff2868cca"><path d="M 28.046875 123.949219 L 120.578125 123.949219 L 120.578125 134.238281 L 28.046875 134.238281 Z M 28.046875 123.949219 " clip-rule="nonzero"/></clipPath><clipPath id="912f3a399a"><path d="M 132.625 65.464844 L 225.160156 65.464844 L 225.160156 75.753906 L 132.625 75.753906 Z M 132.625 65.464844 " clip-rule="nonzero"/></clipPath><clipPath id="c2ca518ae0"><path d="M 245.46875 123.949219 L 338 123.949219 L 338 134.238281 L 245.46875 134.238281 Z M 245.46875 123.949219 " clip-rule="nonzero"/></clipPath></defs><g clip-path="url(#a739b84752)"><path fill="#ffffff" d="M 0.460938 0 L 374.539062 0 L 374.539062 202 L 0.460938 202 Z M 0.460938 0 " fill-opacity="1" fill-rule="nonzero"/><path fill="#000000" d="M 0.460938 0 L 374.539062 0 L 374.539062 202 L 0.460938 202 Z M 0.460938 0 " fill-opacity="1" fill-rule="nonzero"/></g><g clip-path="url(#eff2868cca)"><path fill="#ffffff" d="M 28.046875 123.949219 L 120.574219 123.949219 L 120.574219 134.238281 L 28.046875 134.238281 Z M 28.046875 123.949219 " fill-opacity="1" fill-rule="nonzero"/></g><g clip-path="url(#912f3a399a)"><path fill="#ffffff" d="M 132.625 65.464844 L 225.15625 65.464844 L 225.15625 75.753906 L 132.625 75.753906 Z M 132.625 65.464844 " fill-opacity="1" fill-rule="nonzero"/></g><g fill="#ffffff" fill-opacity="1"><g transform="translate(36.544237, 105.571782)"><g><path d="M 0.53125 0 L 17.140625 -41.828125 L 26.46875 -41.828125 L 43.078125 0 L 32.921875 0 L 30.109375 -7.234375 L 13.5 -7.234375 L 10.6875 0 Z M 15.953125 -14.703125 L 27.71875 -14.703125 L 21.8125 -30 Z M 15.953125 -14.703125 "/></g></g></g><g fill="#ffffff" fill-opacity="1"><g transform="translate(92.535262, 105.571782)"><g><path d="M 5.015625 0 L 5.015625 -41.828125 L 14.515625 -41.828125 L 14.515625 0 Z M 5.015625 0 "/></g></g></g><g fill="#ffffff" fill-opacity="1"><g transform="translate(137.779783, 133.966349)"><g><path d="M 19.59375 0.84375 C 16.09375 0.84375 13.078125 0.265625 10.546875 -0.890625 C 8.015625 -2.046875 6.0625 -3.6875 4.6875 -5.8125 C 3.3125 -7.945312 2.625 -10.453125 2.625 -13.328125 L 11.953125 -13.328125 C 11.953125 -11.335938 12.640625 -9.78125 14.015625 -8.65625 C 15.390625 -7.539062 17.226562 -6.984375 19.53125 -6.984375 C 21.53125 -6.984375 23.101562 -7.375 24.25 -8.15625 C 25.40625 -8.9375 25.984375 -10.019531 25.984375 -11.40625 C 25.984375 -12.882812 25.285156 -14.082031 23.890625 -15 C 22.503906 -15.914062 20.335938 -16.691406 17.390625 -17.328125 C 12.484375 -18.359375 8.851562 -19.929688 6.5 -22.046875 C 4.15625 -24.160156 2.984375 -26.910156 2.984375 -30.296875 C 2.984375 -34.117188 4.378906 -37.132812 7.171875 -39.34375 C 9.960938 -41.550781 13.765625 -42.65625 18.578125 -42.65625 C 21.890625 -42.65625 24.757812 -42.085938 27.1875 -40.953125 C 29.613281 -39.816406 31.492188 -38.222656 32.828125 -36.171875 C 34.160156 -34.117188 34.828125 -31.679688 34.828125 -28.859375 L 25.6875 -28.859375 C 25.6875 -30.734375 25.066406 -32.207031 23.828125 -33.28125 C 22.597656 -34.351562 20.890625 -34.890625 18.703125 -34.890625 C 16.710938 -34.890625 15.140625 -34.5 13.984375 -33.71875 C 12.828125 -32.945312 12.25 -31.863281 12.25 -30.46875 C 12.25 -29.195312 12.882812 -28.125 14.15625 -27.25 C 15.4375 -26.375 17.671875 -25.554688 20.859375 -24.796875 C 26.078125 -23.554688 29.835938 -21.898438 32.140625 -19.828125 C 34.453125 -17.765625 35.609375 -15.078125 35.609375 -11.765625 C 35.609375 -7.828125 34.179688 -4.738281 31.328125 -2.5 C 28.484375 -0.269531 24.570312 0.84375 19.59375 0.84375 Z M 19.59375 0.84375 "/></g></g></g><g fill="#ffffff" fill-opacity="1"><g transform="translate(188.452667, 133.966349)"><g><path d="M 15.0625 0 L 15.0625 -32.921875 L 1.796875 -32.921875 L 1.796875 -41.828125 L 37.828125 -41.828125 L 37.828125 -32.921875 L 24.5625 -32.921875 L 24.5625 0 Z M 15.0625 0 "/></g></g></g><g clip-path="url(#c2ca518ae0)"><path fill="#ffffff" d="M 245.46875 123.949219 L 337.996094 123.949219 L 337.996094 134.238281 L 245.46875 134.238281 Z M 245.46875 123.949219 " fill-opacity="1" fill-rule="nonzero"/></g><g fill="#ffffff" fill-opacity="1"><g transform="translate(242.700069, 105.571782)"><g><path d="M 5.015625 0 L 5.015625 -41.828125 L 22.890625 -41.828125 C 26.078125 -41.828125 28.84375 -41.25 31.1875 -40.09375 C 33.539062 -38.9375 35.351562 -37.28125 36.625 -35.125 C 37.894531 -32.976562 38.53125 -30.410156 38.53125 -27.421875 C 38.53125 -24.359375 37.832031 -21.71875 36.4375 -19.5 C 35.050781 -17.289062 33.101562 -15.628906 30.59375 -14.515625 L 39.25 0 L 28.265625 0 L 20.796875 -13.03125 L 14.515625 -13.03125 L 14.515625 0 Z M 14.40625 -21.03125 L 21.625 -21.03125 C 23.976562 -21.03125 25.78125 -21.578125 27.03125 -22.671875 C 28.289062 -23.765625 28.921875 -25.328125 28.921875 -27.359375 C 28.921875 -29.390625 28.289062 -30.953125 27.03125 -32.046875 C 25.78125 -33.148438 23.976562 -33.703125 21.625 -33.703125 L 14.40625 -33.703125 Z M 14.40625 -21.03125 "/></g></g></g><g fill="#ffffff" fill-opacity="1"><g transform="translate(297.137475, 105.571782)"><g><path d="M 0.53125 0 L 17.140625 -41.828125 L 26.46875 -41.828125 L 43.078125 0 L 32.921875 0 L 30.109375 -7.234375 L 13.5 -7.234375 L 10.6875 0 Z M 15.953125 -14.703125 L 27.71875 -14.703125 L 21.8125 -30 Z M 15.953125 -14.703125 "/></g></g></g></svg>